<svg width="36" height="32" viewBox="0 0 36 32" fill="none" xmlns="http://www.w3.org/2000/svg">
<path d="M35.9444 27.7031L28.8444 1.19125C28.6375 0.41875 27.8506 -0.19875 26.8844 0.06L25.9188 0.31875C25.5325 0.4225 25.1981 0.71875 24.915 1.20875C24.0381 1.6425 21.6463 2.28438 20.665 2.3475C20.175 2.06438 19.7369 1.975 19.3506 2.07875L18.3844 2.3375C18.2331 2.37813 18.1219 2.45937 18 2.53V2C18 0.895625 17.1044 0 16 0H12C10.8956 0 10 0.895625 10 2V6H18L24.3538 30.8088C24.5606 31.5812 25.3475 32.1987 26.3138 31.94L27.2794 31.6812C27.6656 31.5775 28 31.2812 28.2831 30.7913C29.1525 30.3612 31.5444 29.7162 32.5331 29.6525C33.0231 29.9356 33.4613 30.025 33.8475 29.9212L34.8138 29.6625C35.7794 29.4037 36.1519 28.4756 35.9444 27.7031ZM27.5444 27.2619L21.79 5.77313L25.6538 4.73812L31.4081 26.2269L27.5444 27.2619ZM0 24H8V8H0V24ZM6 0H2C0.895626 0 0 0.895625 0 2V6H8V2C8 0.895625 7.10438 0 6 0ZM0 30C0 31.1044 0.895626 32 2 32H6C7.10438 32 8 31.1044 8 30V26H0V30ZM10 24H18V8H10V24ZM10 30C10 31.1044 10.8956 32 12 32H16C17.1044 32 18 31.1044 18 30V26H10V30Z" fill="#1C92E0"/>
</svg>
