<svg width="15" height="14" viewBox="0 0 15 14" fill="none" xmlns="http://www.w3.org/2000/svg">
<path fill-rule="evenodd" clip-rule="evenodd" d="M6.5625 1.25C6.31386 1.25 6.0754 1.34877 5.89959 1.52459C5.72377 1.7004 5.625 1.93886 5.625 2.1875V3.75C5.625 4.09518 5.34518 4.375 5 4.375C4.65482 4.375 4.375 4.09518 4.375 3.75V2.1875C4.375 1.60734 4.60547 1.05094 5.0157 0.640704C5.42594 0.230468 5.98234 0 6.5625 0H12.8125C13.3927 0 13.9491 0.230468 14.3593 0.640704C14.7695 1.05094 15 1.60734 15 2.1875V11.5625C15 12.1427 14.7695 12.6991 14.3593 13.1093C13.9491 13.5195 13.3927 13.75 12.8125 13.75H6.875C6.28813 13.75 5.68633 13.5181 5.22845 13.1593C4.77296 12.8024 4.375 12.248 4.375 11.5625V10C4.375 9.65482 4.65482 9.375 5 9.375C5.34518 9.375 5.625 9.65482 5.625 10V11.5625C5.625 11.7399 5.7331 11.9667 5.99939 12.1754C6.26328 12.3821 6.59898 12.5 6.875 12.5H12.8125C13.0611 12.5 13.2996 12.4012 13.4754 12.2254C13.6512 12.0496 13.75 11.8111 13.75 11.5625V2.1875C13.75 1.93886 13.6512 1.7004 13.4754 1.52459C13.2996 1.34877 13.0611 1.25 12.8125 1.25H6.5625ZM8.30806 3.30806C8.55214 3.06398 8.94786 3.06398 9.19194 3.30806L12.3169 6.43306C12.561 6.67714 12.561 7.07286 12.3169 7.31694L9.19194 10.4419C8.94786 10.686 8.55214 10.686 8.30806 10.4419C8.06398 10.1979 8.06398 9.80214 8.30806 9.55806L10.3661 7.5H0.625C0.279822 7.5 0 7.22018 0 6.875C0 6.52982 0.279822 6.25 0.625 6.25H10.3661L8.30806 4.19194C8.06398 3.94786 8.06398 3.55214 8.30806 3.30806Z" fill="#F7F9FA"/>
</svg>
