<svg width="16" height="16" viewBox="0 0 16 16" fill="none" xmlns="http://www.w3.org/2000/svg">
<g clip-path="url(#clip0_19067_70807)">
<path d="M3.5 0H12.5C14.433 0 16 1.567 16 3.5V12.5C16 14.433 14.433 16 12.5 16H3.5C1.567 16 0 14.433 0 12.5V3.5C0 1.567 1.567 0 3.5 0Z" fill="#41479B"/>
<path d="M7.64653 6.3276C7.806 6.29745 7.99996 6.09485 7.93099 5.98276C7.86203 5.8707 7.99134 5.6207 8.14653 5.70688C8.30168 5.7931 8.40515 5.89654 8.55168 5.93104C8.69824 5.96551 8.81893 6.0776 8.70684 6.18104C8.59478 6.28448 8.42234 6.49138 8.58615 6.70688C8.74993 6.92242 8.69821 6.77585 8.89649 6.87067C9.09478 6.96551 9.23271 7.15517 9.17234 7.26723C9.112 7.37929 9.06028 7.42238 9.23268 7.49998C9.40509 7.57757 9.48268 7.52585 9.62062 7.56032C9.75856 7.59479 10.0947 7.76723 10.1982 7.91376C10.3017 8.06032 10.5258 7.92239 10.6206 7.90514C10.7155 7.88789 10.9051 7.95685 10.9482 8.06892C10.9913 8.18098 10.9137 8.28445 10.7499 8.33617C10.5862 8.38788 10.5172 8.39651 10.5948 8.53445C10.6724 8.67238 10.6207 8.9396 10.4913 9.0172C10.362 9.09479 10.112 9.33617 10.112 9.49995C10.112 9.66373 10.1465 9.90513 9.90512 9.9396C9.66374 9.9741 9.29306 10.0775 9.16374 10.3017C9.03443 10.5258 8.99996 10.6551 8.97409 10.793C8.94824 10.931 8.92237 11.043 8.84478 11.1982C8.76718 11.3534 8.71546 11.6206 8.79306 11.6809C8.87065 11.7413 8.93099 11.7844 8.87065 11.9008C8.81031 12.0171 8.79737 12.0603 8.68531 11.9956C8.57325 11.9309 8.57325 11.9999 8.5129 11.987C8.45256 11.974 8.17668 11.8749 8.2284 11.7413C8.28012 11.6077 8.39218 11.3016 8.23271 11.1422C8.07321 10.9827 7.85771 10.9568 7.71978 10.8491C7.58184 10.7413 7.3534 10.7241 7.17668 10.5517C6.99996 10.3793 6.81031 10.4827 6.78012 10.6034C6.74993 10.7241 6.70253 10.9568 6.56459 10.9525C6.42665 10.9482 6.39649 10.9482 6.37062 10.7801C6.34474 10.612 6.12924 10.237 6.04303 10.2844C5.95681 10.3318 5.87924 10.293 5.87493 10.2198C5.87062 10.1465 5.70684 10.0818 5.63787 10.1853C5.5689 10.2887 5.41803 10.3706 5.42234 10.2413C5.42665 10.112 5.60337 10.1293 5.60768 9.98701C5.61199 9.84476 5.46543 9.75426 5.33612 9.69392C5.20681 9.63357 5.2844 9.47842 5.24559 9.3922C5.20681 9.30598 4.99559 9.19823 4.98696 9.11201C4.97834 9.02579 5.03868 8.99132 4.94818 8.96976C4.85765 8.9482 4.74559 8.90942 4.81024 8.81029C4.8749 8.71117 4.85334 8.63789 4.78437 8.59045C4.7154 8.54304 4.68306 8.31798 4.78365 8.28876C4.88425 8.25954 5.06599 8.34395 5.11143 8.3991C5.15687 8.45429 5.34187 8.21735 5.42949 8.15895C5.51712 8.10054 6.08184 8.13623 6.06884 8.03885C6.05584 7.94148 5.81884 7.5861 5.92228 7.53007C6.02571 7.47404 6.18953 7.39214 6.32315 7.34904C6.45678 7.30595 6.42659 7.45248 6.49987 7.3361C6.57315 7.21973 6.599 6.80595 6.6809 6.80595C6.76281 6.80595 6.82315 6.97835 6.85762 6.9137C6.89209 6.84904 6.84468 6.40076 7.03434 6.39214C7.224 6.38351 7.22831 6.49557 7.33606 6.4137C7.44381 6.33182 7.4285 6.36885 7.64653 6.3276Z" fill="#FF9B55"/>
<path d="M8.81801 3.87544L8.96119 4.30481L9.41379 4.30831C9.4386 4.3085 9.44888 4.34016 9.42891 4.35491L9.06482 4.62378L9.20135 5.05531C9.20885 5.07897 9.18191 5.09853 9.16173 5.08412L8.79351 4.82094L8.42529 5.08412C8.4051 5.09856 8.37816 5.07897 8.38566 5.05531L8.52219 4.62378L8.1581 4.35491C8.13813 4.34016 8.14841 4.3085 8.17323 4.30831L8.62582 4.30481L8.76901 3.87544C8.77688 3.85191 8.81016 3.85191 8.81801 3.87544Z" fill="#F5F5F5"/>
<path d="M7.22328 3.87544L7.36647 4.30481L7.81906 4.30831C7.84387 4.3085 7.85416 4.34016 7.83419 4.35491L7.47009 4.62378L7.60662 5.05531C7.61409 5.07897 7.58719 5.09853 7.567 5.08412L7.19878 4.82094L6.83056 5.08412C6.81037 5.09856 6.78344 5.07897 6.79091 5.05531L6.92744 4.62378L6.56334 4.35491C6.54337 4.34016 6.55365 4.3085 6.57847 4.30831L7.03106 4.30481L7.17425 3.87544C7.18212 3.85191 7.21544 3.85191 7.22328 3.87544Z" fill="#F5F5F5"/>
<path d="M10.3912 4.13838L10.5344 4.56775L10.987 4.57125C11.0118 4.57144 11.0221 4.60313 11.0022 4.61784L10.6381 4.88672L10.7746 5.31825C10.7821 5.34191 10.7552 5.36147 10.735 5.34706L10.3667 5.08388L9.99853 5.34706C9.97834 5.3615 9.95141 5.34191 9.95887 5.31825L10.0954 4.88672L9.73131 4.61784C9.71134 4.60309 9.72165 4.57144 9.74644 4.57125L10.199 4.56775L10.3422 4.13838C10.3501 4.11484 10.3834 4.11484 10.3912 4.13838Z" fill="#F5F5F5"/>
<path d="M11.8795 4.67939L12.0227 5.10877L12.4753 5.11227C12.5001 5.11245 12.5104 5.14414 12.4905 5.15886L12.1264 5.42774L12.2629 5.85927C12.2704 5.88292 12.2435 5.90249 12.2232 5.88808L11.855 5.62489L11.4868 5.88808C11.4666 5.90252 11.4397 5.88292 11.4472 5.85927L11.5837 5.42774L11.2196 5.15886C11.1996 5.14411 11.2099 5.11245 11.2348 5.11227L11.6874 5.10877L11.8306 4.67939C11.8384 4.65586 11.8717 4.65586 11.8795 4.67939Z" fill="#F5F5F5"/>
<path d="M5.60494 4.13838L5.46176 4.56775L5.00916 4.57125C4.98435 4.57144 4.97407 4.60313 4.99404 4.61784L5.35813 4.88672L5.2216 5.31825C5.2141 5.34191 5.24104 5.36147 5.26123 5.34706L5.62944 5.08388L5.99766 5.34706C6.01785 5.3615 6.04479 5.34191 6.03729 5.31825L5.90076 4.88672L6.26485 4.61784C6.28482 4.60309 6.27454 4.57144 6.24973 4.57125L5.79713 4.56775L5.65394 4.13838C5.6461 4.11484 5.61279 4.11484 5.60494 4.13838Z" fill="#F5F5F5"/>
<path d="M4.11664 4.67939L3.97345 5.10877L3.52086 5.11227C3.49605 5.11245 3.48577 5.14414 3.50573 5.15886L3.86983 5.42774L3.7333 5.85927C3.72583 5.88292 3.75277 5.90249 3.77295 5.88808L4.14117 5.62489L4.50939 5.88808C4.52958 5.90252 4.55652 5.88292 4.54902 5.85927L4.41249 5.42774L4.77658 5.15886C4.79655 5.14411 4.78623 5.11245 4.76142 5.11227L4.30883 5.10877L4.16564 4.67939C4.1578 4.65586 4.12448 4.65586 4.11664 4.67939Z" fill="#F5F5F5"/>
</g>
<defs>
<clipPath id="clip0_19067_70807">
<rect width="16" height="16" fill="white" transform="matrix(-1 0 0 1 16 0)"/>
</clipPath>
</defs>
</svg>
