<svg width="16" height="16" viewBox="0 0 16 16" fill="none" xmlns="http://www.w3.org/2000/svg">
<g clip-path="url(#clip0_19067_76542)">
<path d="M3.5 0H12.5C14.433 0 16 1.567 16 3.5V12.5C16 14.433 14.433 16 12.5 16H3.5C1.567 16 0 14.433 0 12.5V3.5C0 1.567 1.567 0 3.5 0Z" fill="#FF4B55"/>
<path d="M7.95214 3.78943C5.62842 3.78943 3.74498 5.67796 3.74498 7.99996C3.74498 10.3287 5.62842 12.2105 7.95214 12.2105C10.2809 12.2105 12.166 10.3287 12.166 7.99996C12.166 5.67796 10.2809 3.78943 7.95214 3.78943Z" fill="#F5F5F5"/>
<path d="M7.1869 10.3594C8.49034 10.3594 9.54759 9.30219 9.54759 8.00026C9.54759 6.70147 8.49034 5.64426 7.1869 5.64426C6.74355 5.64426 6.32927 5.76847 5.97515 5.98297C5.92209 6.0151 5.8663 5.94563 5.91049 5.9021C6.44174 5.37869 7.16918 5.05444 7.97274 5.05444C9.60402 5.05444 10.9248 6.37526 10.9248 8.00026C10.9248 9.62838 9.60399 10.9492 7.97274 10.9492C7.16962 10.9492 6.44249 10.6252 5.91134 10.1019C5.86715 10.0584 5.92293 9.98891 5.97599 10.021C6.3299 10.2354 6.7439 10.3594 7.1869 10.3594Z" fill="#FF4B55"/>
<path d="M7.40271 6.34903L6.75193 7.23266L5.70521 6.90297C5.56971 6.86028 5.45784 7.01466 5.54062 7.13016L6.1799 8.02212L5.5429 8.91572C5.46043 9.03141 5.57268 9.1855 5.70809 9.14247L6.75396 8.81012L7.40699 9.69209C7.49155 9.80628 7.67277 9.74712 7.67368 9.60506L7.68077 8.50769L8.72137 8.15916C8.85609 8.11403 8.85584 7.92337 8.72099 7.87862L7.67952 7.53275L7.66962 6.43537C7.66837 6.29331 7.48699 6.23462 7.40271 6.34903Z" fill="#FF4B55"/>
</g>
<defs>
<clipPath id="clip0_19067_76542">
<rect width="16" height="16" fill="white" transform="matrix(-1 0 0 1 16 0)"/>
</clipPath>
</defs>
</svg>
