<svg width="70" height="20" viewBox="0 0 70 20" fill="none" xmlns="http://www.w3.org/2000/svg">
<path d="M11.5086 1.97835C11.2626 1.58853 10.9419 1.24903 10.564 0.978605C10.1825 0.723165 9.76437 0.524397 9.32337 0.388756C8.8442 0.235275 8.34948 0.133039 7.84783 0.083834C7.26075 0.0278064 6.67113 0.00111189 6.08127 0.00385443H0.975603C0.857252 -0.00709047 0.737862 0.0053313 0.624504 0.0403839C0.511146 0.0754365 0.406126 0.132407 0.315667 0.20792C0.225207 0.283433 0.151147 0.375954 0.0978737 0.48C0.0446006 0.584046 0.013198 0.697503 0.0055264 0.813647C0.0055264 0.813647 0.0055264 0.84364 0.0055264 0.858636V8.97656C0.713387 10.4637 1.88889 11.6899 3.35995 12.4757V10.8461C3.34874 10.7203 3.36298 10.5937 3.40184 10.4733C3.4407 10.353 3.50342 10.2413 3.58641 10.1448C3.66941 10.0482 3.77104 9.96858 3.8855 9.91051C3.99996 9.85244 4.12499 9.81705 4.25344 9.80635H5.78514C7.87506 9.80635 9.46973 9.37813 10.5692 8.52168C11.6686 7.66523 12.2268 6.39555 12.2438 4.71265C12.2456 4.22767 12.1873 3.74426 12.0702 3.27302C11.9535 2.8153 11.764 2.37841 11.5086 1.97835ZM8.51667 6.15228C8.33861 6.45226 8.07393 6.69399 7.75593 6.8471C7.41136 7.00823 7.03906 7.10487 6.65821 7.13203C6.23988 7.18303 5.81867 7.20808 5.39711 7.20701H3.92668C3.57439 7.20701 3.35484 6.92708 3.35484 6.51719V3.16805C3.34977 3.09456 3.36134 3.02089 3.38873 2.95229C3.41612 2.8837 3.45865 2.82187 3.51329 2.77125C3.56793 2.72062 3.63332 2.68244 3.70478 2.65944C3.77624 2.63643 3.85202 2.62917 3.92668 2.63818H5.39711C5.87364 2.63818 6.32294 2.65151 6.74501 2.67817C7.12116 2.69584 7.49035 2.78409 7.83251 2.9381C8.14732 3.07533 8.40994 3.30621 8.58305 3.59794C8.77852 3.98909 8.86817 4.42282 8.84344 4.85761C8.85336 5.30828 8.74058 5.75341 8.51667 6.14728V6.15228ZM3.36506 12.9655C2.10598 12.5208 0.959963 11.8149 0.0055264 10.8961V14.8201C-0.00516556 14.8948 -0.000309626 14.9709 0.0198023 15.0438C0.0399142 15.1166 0.0748669 15.1848 0.122559 15.2441C0.170251 15.3034 0.229698 15.3526 0.297327 15.3888C0.364955 15.4251 0.439368 15.4475 0.516093 15.4549H2.82385C3.43653 15.4549 3.36506 14.8151 3.36506 14.8151V12.9655ZM35.0815 4.27776H33.0902C32.9002 4.26559 32.7119 4.31964 32.5587 4.43034C32.4054 4.54103 32.2971 4.70124 32.2529 4.88261L29.9401 11.121C29.9401 11.121 27.8978 5.43746 27.7446 4.99758C27.7016 4.79461 27.5891 4.61211 27.4256 4.4803C27.2622 4.34849 27.0577 4.27527 26.846 4.27276H25.0131C24.3596 4.27276 24.3596 4.77263 24.4464 4.96759C24.5332 5.16254 27.04 11.8908 28.0203 14.4652C28.1747 14.7821 28.283 15.1186 28.342 15.4649C28.2784 15.8067 28.1466 16.1329 27.9539 16.4247C27.8794 16.5484 27.794 16.6654 27.6987 16.7746C29.5878 16.2247 31.7832 14.2202 32.886 12.0558C33.9991 9.05654 35.4644 5.05756 35.5308 4.85261C35.6022 4.53769 35.6022 4.27776 35.0815 4.27776ZM26.2078 17.3844C26.037 17.3799 25.8666 17.3666 25.6972 17.3444C25.4879 17.3144 25.0897 17.3444 25.0897 17.6943V19.1939C25.0897 19.7688 25.3756 19.8088 25.5237 19.8488C25.9965 19.9503 26.4794 20.0006 26.9634 19.9987C27.5355 20.0135 28.1033 19.8989 28.6228 19.6638C29.098 19.4288 29.52 19.1024 29.8635 18.7041C30.2529 18.2681 30.5825 17.7841 30.8438 17.2644C31.1263 16.7112 31.3952 16.0997 31.6505 15.4299L31.9466 14.6351C31.3543 15.21 28.7402 17.6243 26.2078 17.3844ZM23.1955 6.0723C23.087 5.81971 22.9388 5.58527 22.7564 5.37748C22.5719 5.185 22.3625 5.01695 22.1335 4.87761C21.8861 4.71269 21.6228 4.57205 21.3472 4.45772C21.0667 4.35127 20.7782 4.26605 20.4844 4.20278C20.1481 4.12995 19.8068 4.0815 19.4632 4.05782C19.0956 4.02116 18.6838 4.00283 18.2277 4.00283C15.1847 4.00283 13.4522 4.94259 13.0301 6.82211C13.0121 6.89217 13.0098 6.96521 13.0234 7.03621C13.037 7.10721 13.0661 7.17449 13.1088 7.2334C13.1515 7.29231 13.2068 7.34146 13.2708 7.37746C13.3347 7.41347 13.4059 7.43547 13.4794 7.44195H15.3532C15.8637 7.44195 15.8637 7.28699 16.0577 6.8571C16.1428 6.62306 16.2953 6.41817 16.4968 6.26725C16.9756 5.96469 17.5418 5.82259 18.1102 5.86236C18.6403 5.80931 19.1727 5.93831 19.6164 6.22726C19.9548 6.53653 20.1548 6.96409 20.1729 7.41696C20.1729 8.0368 19.9789 8.4467 19.1926 8.4467C17.3291 8.38171 15.3276 8.58666 14.1993 9.2215C13.6438 9.55346 13.1879 10.0233 12.8776 10.5833C12.5674 11.1434 12.4139 11.7738 12.4327 12.4107C12.4199 12.9068 12.5229 13.3991 12.734 13.8503C12.9327 14.2424 13.221 14.5845 13.5764 14.8501C13.9494 15.148 14.3801 15.369 14.8426 15.4999C15.3651 15.6384 15.9045 15.7057 16.4458 15.6998C17.1739 15.7109 17.8993 15.6097 18.5953 15.3999C19.2104 15.1532 19.7918 14.8324 20.3261 14.4452V14.7951C20.3261 15.14 20.4333 15.4499 20.8366 15.4499H23.0066C23.4456 15.4499 23.5478 15.145 23.5478 14.7651V8.22175C23.5504 7.81363 23.5214 7.40589 23.461 7.00206C23.4128 6.68244 23.3236 6.37005 23.1955 6.0723ZM20.2291 12.5007C20.2291 12.5007 19.6675 13.6504 17.6762 13.6504C17.1988 13.6719 16.7267 13.5441 16.3283 13.2855C16.153 13.1522 16.0145 12.9781 15.9253 12.779C15.8362 12.58 15.7992 12.3623 15.8178 12.1458C15.7958 11.8549 15.8646 11.5644 16.0151 11.3127C16.1655 11.0609 16.3905 10.8599 16.6602 10.7361C17.4657 10.4331 18.3252 10.292 19.1875 10.3212C19.3195 10.3017 19.4542 10.3104 19.5824 10.3468C19.7106 10.3831 19.8292 10.4462 19.9301 10.5317C20.031 10.6172 20.1118 10.7231 20.167 10.8421C20.2221 10.9611 20.2503 11.0903 20.2495 11.221L20.2291 12.5007Z" fill="white"/>
<path d="M68.8196 8.29192C69.0712 8.68803 69.2045 9.14515 69.2045 9.61158C69.2045 10.078 69.0712 10.5351 68.8196 10.9312C68.3091 11.691 65.5265 14.6003 64.6075 15.5351C63.811 16.3449 62.7337 17.1646 61.6666 17.1646H39.5642C36.5723 17.1646 36.3936 16.1649 36.3936 13.9355V4.8428C36.3936 2.55838 37.0828 1.89355 39.1302 1.89355H61.7177C62.7745 1.89355 63.7191 2.42342 64.781 3.49315C65.7103 4.40791 68.452 7.75206 68.8196 8.29192Z" fill="#33CCCC"/>
<path d="M41.4103 5.40734V5.35235C41.4103 5.05741 41.4103 4.77246 40.8997 4.77246H39.0462C38.6122 4.77246 38.5918 5.00242 38.5918 5.36235V7.76191C39.3229 6.76538 40.2901 5.95741 41.4103 5.40734Z" fill="#13181C"/>
<path d="M53.8225 14.0838V13.9538V8.16532C53.8225 5.74261 52.7299 4.53125 50.5447 4.53125C49.9365 4.5383 49.3424 4.71142 48.8292 5.03112C48.2637 5.37644 47.7586 5.80851 47.3332 6.3108C47.1407 5.76791 46.7665 5.30464 46.2712 4.99613C45.7081 4.69223 45.0706 4.54528 44.4281 4.57124C43.4831 4.57472 42.5658 4.88404 41.8191 5.45101C41.6557 5.61097 38.5872 7.95038 38.5872 10.3898V14.0938C38.5872 14.2088 38.526 14.6587 39.0416 14.6587H40.9665C41.5638 14.6587 41.5077 14.2738 41.5077 14.1138V8.11533C41.8293 7.69044 42.4879 6.6757 43.5755 6.6757C43.7494 6.66021 43.9244 6.6905 44.0824 6.76344C44.2404 6.83638 44.3756 6.94933 44.4741 7.0906C44.6924 7.51737 44.7877 7.99437 44.7498 8.47024V13.144V14.1038C44.7498 14.2188 44.6885 14.6687 45.2042 14.6687H47.1086C47.7059 14.6687 47.6498 14.2838 47.6498 14.1238V13.9938V8.09534C47.997 7.67045 48.6709 6.65571 49.7176 6.65571C49.8935 6.64161 50.0702 6.67242 50.2304 6.74514C50.3906 6.81785 50.5288 6.92999 50.6315 7.0706C50.8533 7.4963 50.9505 7.97381 50.9123 8.45025V13.1241V14.0838C50.9123 14.1988 50.851 14.6487 51.3667 14.6487H53.2915C53.894 14.6187 53.8225 14.2388 53.8225 14.0838Z" fill="#13181C"/>
<path d="M64.4381 11.7314C64.111 12.5925 63.5116 13.3289 62.7273 13.8333C61.943 14.3378 61.0147 14.5839 60.0776 14.5359C57.1365 14.5359 55.1758 12.5762 55.1758 9.63677C55.1758 6.69731 57.2182 4.6377 59.9754 4.6377C62.7327 4.6377 64.5709 6.50735 64.6883 9.52179C64.6883 9.90672 64.5913 10.2467 64.096 10.2467H57.8564C57.8973 11.8614 58.6887 12.7462 60.098 12.7462C60.4721 12.7554 60.8412 12.6595 61.1615 12.4699C61.4818 12.2804 61.7399 12.005 61.9055 11.6764C61.9707 11.5834 62.0585 11.5077 62.161 11.4563C62.2635 11.4048 62.3775 11.3791 62.4927 11.3814H64.1011C64.1494 11.3792 64.1975 11.3876 64.242 11.4061C64.2865 11.4246 64.3261 11.4527 64.358 11.4882C64.3899 11.5237 64.4132 11.5658 64.4262 11.6114C64.4392 11.657 64.4415 11.7048 64.433 11.7514L64.4381 11.7314ZM59.9857 6.50235C58.8164 6.50235 58.0249 7.2972 57.8513 8.60696H62.0383C61.931 7.46217 61.2979 6.50235 59.9857 6.50235Z" fill="#13181C"/>
</svg>
