<svg width="20" height="20" viewBox="0 0 20 20" fill="none" xmlns="http://www.w3.org/2000/svg">
<path d="M14.667 4.66663C13.3337 3.33329 11.3337 2.66663 9.66699 2.66663C9.11499 2.66663 8.66699 3.11463 8.66699 3.66663C8.66699 4.21863 9.11499 4.66663 9.66699 4.66663C9.9458 4.66663 10.2203 4.66082 10.4882 4.65516C11.8221 4.62696 12.9949 4.60216 13.741 5.31329C13.5631 5.45573 13.4576 5.66873 13.351 5.88383C13.1588 6.2718 12.9633 6.66663 12.3337 6.66663C12.1246 6.66663 11.8121 6.57801 11.4149 6.46539C10.7227 6.26912 9.77344 5.99996 8.66699 5.99996C6.70472 5.99996 5.01121 7.09697 4.71337 9.78852C4.28928 9.50951 3.73357 9.33337 3.33333 9.33337C2.59667 9.33337 2 9.93004 2 10.6667C2 11.4034 2.59667 12 3.33333 12C3.78847 12 4.44464 11.7723 4.8797 11.4245C5.36044 12.237 6.49894 12.6253 6.62633 12.662C6.73853 12.6941 6.89141 12.7158 7.05885 12.7397C7.58681 12.8149 8.25966 12.9108 8.25966 13.416C8.25966 13.7673 8.01823 14.0949 7.78192 14.4156C7.59453 14.67 7.41036 14.9199 7.35236 15.1738C7.33961 15.2256 7.33301 15.2791 7.33301 15.3333C7.33301 15.5101 7.40325 15.6797 7.52827 15.8047C7.65329 15.9297 7.82286 16 7.99967 16C8.00011 16 8.00055 16 8.00099 16C10.1442 16 10.7622 17.0168 11.2696 17.8517C11.3397 17.9669 11.4076 18.0787 11.4772 18.1839C11.5186 18.2524 11.5684 18.3162 11.6259 18.3737C11.8134 18.5613 12.0678 18.6666 12.333 18.6666C12.5982 18.6666 12.8526 18.5613 13.0401 18.3737C13.2276 18.1862 13.333 17.932 13.333 17.6668C13.333 15.6415 10.0003 14.6666 10.0003 14.6666C10.0003 14.6666 12.0003 13.5186 12.0003 11.6666C12.0003 9.87863 11.3337 9.33329 11.3337 9.33329C11.3337 9.33329 13.3337 9.99996 13.3337 11.6373C13.3337 12.8593 13.0003 14 13.0003 14C13.0003 14 14.667 12.9826 14.667 8.66663C14.667 8.66663 15.2603 9.33329 16.667 9.33329L16.738 9.33336C17.6541 9.33461 18.0003 9.33508 18.0003 7.33329C18.0003 6.71463 17.5097 4.66663 14.667 4.66663Z" fill="#DC2D2D"/>
<path fill-rule="evenodd" clip-rule="evenodd" d="M2.25033 4.66663C2.25033 4.25241 2.58611 3.91663 3.00033 3.91663H5.00033C5.41454 3.91663 5.75033 4.25241 5.75033 4.66663C5.75033 5.08084 5.41454 5.41663 5.00033 5.41663H3.00033C2.58611 5.41663 2.25033 5.08084 2.25033 4.66663ZM0.916992 7.33329C0.916992 6.91908 1.25278 6.58329 1.66699 6.58329H3.66699C4.08121 6.58329 4.41699 6.91908 4.41699 7.33329C4.41699 7.74751 4.08121 8.08329 3.66699 8.08329H1.66699C1.25278 8.08329 0.916992 7.74751 0.916992 7.33329Z" fill="#DC2D2D"/>
</svg>
