<svg width="19" height="20" viewBox="0 0 19 20" fill="none" xmlns="http://www.w3.org/2000/svg">
<path fill-rule="evenodd" clip-rule="evenodd" d="M15.25 2C14.5596 2 14 2.55964 14 3.25C14 3.464 14.0538 3.66544 14.1486 3.84154C14.1527 3.84853 14.1568 3.85559 14.1608 3.86271C14.1646 3.86949 14.1683 3.8763 14.172 3.88313C14.3892 4.25227 14.7907 4.5 15.25 4.5C15.9404 4.5 16.5 3.94036 16.5 3.25C16.5 2.55964 15.9404 2 15.25 2ZM13.0451 5.63765C13.6244 6.17293 14.399 6.5 15.25 6.5C17.0449 6.5 18.5 5.04493 18.5 3.25C18.5 1.45507 17.0449 0 15.25 0C13.4551 0 12 1.45507 12 3.25C12 3.47077 12.022 3.68641 12.064 3.89482L5.45494 7.61235C4.87558 7.07707 4.10098 6.75 3.25 6.75C1.45507 6.75 0 8.20507 0 10C0 11.7949 1.45507 13.25 3.25 13.25C4.10099 13.25 4.87558 12.9229 5.45494 12.3876L12.064 16.1052C12.022 16.3136 12 16.5292 12 16.75C12 18.5449 13.4551 20 15.25 20C17.0449 20 18.5 18.5449 18.5 16.75C18.5 14.9551 17.0449 13.5 15.25 13.5C14.399 13.5 13.6244 13.8271 13.0451 14.3624L6.43604 10.6448C6.47799 10.4364 6.5 10.2208 6.5 10C6.5 9.77923 6.47799 9.56359 6.43604 9.35518L13.0451 5.63765ZM4.32802 9.36686C4.33166 9.3737 4.33539 9.38051 4.3392 9.38729C4.34321 9.39441 4.34729 9.40147 4.35145 9.40846C4.44622 9.58456 4.5 9.786 4.5 10C4.5 10.214 4.44622 10.4154 4.35145 10.5915C4.34729 10.5985 4.34321 10.6056 4.3392 10.6127C4.33539 10.6195 4.33166 10.6263 4.32802 10.6331C4.11076 11.0023 3.70931 11.25 3.25 11.25C2.55964 11.25 2 10.6904 2 10C2 9.30964 2.55964 8.75 3.25 8.75C3.70931 8.75 4.11076 8.99773 4.32802 9.36686ZM14.1486 16.1585C14.1527 16.1515 14.1568 16.1444 14.1608 16.1373C14.1646 16.1305 14.1683 16.1237 14.172 16.1169C14.3892 15.7477 14.7907 15.5 15.25 15.5C15.9404 15.5 16.5 16.0596 16.5 16.75C16.5 17.4404 15.9404 18 15.25 18C14.5596 18 14 17.4404 14 16.75C14 16.536 14.0538 16.3346 14.1486 16.1585Z" fill="#F7F9FA"/>
</svg>
