<svg width="24" height="22" viewBox="0 0 24 22" fill="none" xmlns="http://www.w3.org/2000/svg">
<path d="M18.4912 19.9492C18.4912 20.1481 18.4121 20.3388 18.2715 20.4795C18.1308 20.6201 17.9401 20.6992 17.7412 20.6992H5.3916C4.97752 20.6991 4.6416 20.3633 4.6416 19.9492V17.5215C4.64172 17.1577 4.90344 16.8465 5.26172 16.7832L6.05469 16.6426L4.75195 14.5146C4.71744 14.4582 4.69046 14.3975 4.67188 14.334L3.03027 8.71973C2.62129 8.70417 2.23693 8.58679 1.90527 8.38867C1.21555 7.97655 0.750141 7.22083 0.75 6.35547C0.75 5.04604 1.81369 3.98633 3.12207 3.98633C4.43035 3.98657 5.49316 5.04629 5.49316 6.35547C5.4931 6.74004 5.39997 7.1039 5.23633 7.42578L7.13965 9.0752L7.6123 5.25391C7.27156 5.09091 6.9753 4.85063 6.74902 4.55469C6.4446 4.15645 6.26367 3.65728 6.26367 3.11816C6.26378 1.80894 7.32662 0.7502 8.63477 0.75C9.94309 0.75 11.0067 1.80882 11.0068 3.11816C11.0068 3.4511 10.9371 3.77019 10.8115 4.05957C10.6655 4.39598 10.4426 4.68939 10.167 4.92285L11.5537 8.05957L12.9404 4.92285C12.665 4.68939 12.4418 4.39592 12.2959 4.05957C12.1703 3.77019 12.1016 3.4511 12.1016 3.11816C12.1017 1.80893 13.1645 0.750171 14.4727 0.75C15.781 0.75 16.8446 1.80882 16.8447 3.11816C16.8447 3.65737 16.6629 4.15641 16.3584 4.55469C16.1318 4.85097 15.8354 5.09092 15.4941 5.25391L15.9678 9.07422L17.8711 7.4248C17.7078 7.10313 17.6153 6.73952 17.6152 6.35547C17.6152 5.04609 18.678 3.98641 19.9863 3.98633C21.2947 3.98633 22.3584 5.04604 22.3584 6.35547C22.3583 7.22083 21.8929 7.97655 21.2031 8.38867C20.871 8.58714 20.4859 8.70443 20.0762 8.71973L18.4365 14.334C18.4179 14.3976 18.3901 14.4581 18.3555 14.5146L17.0537 16.6396L17.8701 16.7832C18.2289 16.846 18.4911 17.1573 18.4912 17.5215V19.9492Z" stroke="#9DA1A3" stroke-width="1.5" stroke-linejoin="round"/>
</svg>
