<svg width="22" height="22" viewBox="0 0 22 22" fill="none" xmlns="http://www.w3.org/2000/svg">
<path d="M8.2513 3.66675H4.58464C4.07837 3.66675 3.66797 4.07715 3.66797 4.58341V8.25008C3.66797 8.75634 4.07837 9.16675 4.58464 9.16675H8.2513C8.75756 9.16675 9.16797 8.75634 9.16797 8.25008V4.58341C9.16797 4.07715 8.75756 3.66675 8.2513 3.66675Z" stroke="#9DA1A3" stroke-width="1.25" stroke-linecap="round" stroke-linejoin="round"/>
<path d="M17.4154 3.66675H13.7487C13.2424 3.66675 12.832 4.07715 12.832 4.58341V8.25008C12.832 8.75634 13.2424 9.16675 13.7487 9.16675H17.4154C17.9216 9.16675 18.332 8.75634 18.332 8.25008V4.58341C18.332 4.07715 17.9216 3.66675 17.4154 3.66675Z" stroke="#9DA1A3" stroke-width="1.25" stroke-linecap="round" stroke-linejoin="round"/>
<path d="M8.2513 12.8333H4.58464C4.07837 12.8333 3.66797 13.2437 3.66797 13.7499V17.4166C3.66797 17.9228 4.07837 18.3333 4.58464 18.3333H8.2513C8.75756 18.3333 9.16797 17.9228 9.16797 17.4166V13.7499C9.16797 13.2437 8.75756 12.8333 8.2513 12.8333Z" stroke="#9DA1A3" stroke-width="1.25" stroke-linecap="round" stroke-linejoin="round"/>
<path d="M17.4154 12.8333H13.7487C13.2424 12.8333 12.832 13.2437 12.832 13.7499V17.4166C12.832 17.9228 13.2424 18.3333 13.7487 18.3333H17.4154C17.9216 18.3333 18.332 17.9228 18.332 17.4166V13.7499C18.332 13.2437 17.9216 12.8333 17.4154 12.8333Z" stroke="#9DA1A3" stroke-width="1.25" stroke-linecap="round" stroke-linejoin="round"/>
</svg>
