<svg width="13" height="12" viewBox="0 0 13 12" fill="none" xmlns="http://www.w3.org/2000/svg">
<path d="M5.81962 0.143825C5.91914 -0.047965 6.19349 -0.0479646 6.29301 0.143825L8.01294 3.45833C8.05161 3.53286 8.12313 3.58482 8.20597 3.59857L11.8897 4.21008C12.1029 4.24546 12.1877 4.50639 12.036 4.6603L9.41523 7.32029C9.3563 7.3801 9.32898 7.46418 9.3415 7.54721L9.89826 11.2396C9.93048 11.4533 9.70852 11.6146 9.51528 11.5179L6.17561 9.84736C6.10052 9.80979 6.01211 9.80979 5.93702 9.84736L2.59735 11.5179C2.40411 11.6146 2.18215 11.4533 2.21437 11.2396L2.77113 7.54721C2.78365 7.46418 2.75633 7.3801 2.6974 7.32029L0.0766115 4.6603C-0.0750376 4.50639 0.00974137 4.24546 0.222898 4.21008L3.90666 3.59857C3.9895 3.58482 4.06102 3.53286 4.09969 3.45833L5.81962 0.143825Z" fill="#E0B531"/>
</svg>
