<svg width="16" height="22" viewBox="0 0 16 22" fill="none" xmlns="http://www.w3.org/2000/svg">
<path d="M14.9424 19.833C14.9424 20.0318 14.8632 20.2226 14.7227 20.3633C14.582 20.5039 14.3913 20.583 14.1924 20.583H1.5C1.08579 20.583 0.75 20.2472 0.75 19.833V17.333C0.750156 16.9694 1.0111 16.6582 1.36914 16.5947L3.92871 16.1416C3.65365 15.9317 3.38573 15.6888 3.13867 15.4092C2.36558 14.534 1.80768 13.3212 1.80762 11.7246C1.80762 9.30189 3.08642 7.26565 4.2959 5.93359C4.64038 5.5542 4.98941 5.22585 5.3125 4.9502C5.30245 4.93114 5.29089 4.91286 5.28125 4.89355C5.08883 4.50793 4.98047 4.07299 4.98047 3.61523C4.98055 2.03294 6.26345 0.750244 7.8457 0.75C9.42817 0.75 10.7118 2.03279 10.7119 3.61523C10.7119 4.24845 10.505 4.83578 10.1562 5.31055C10.1401 5.33253 10.1229 5.35393 10.1045 5.37402C10.0012 5.48657 9.90136 5.60243 9.80566 5.7207C8.95724 6.76951 8.40397 8.04131 8.12695 9.40723C8.3232 8.8086 8.58614 8.22216 8.8916 7.69434C9.20821 7.14731 9.58445 6.63754 10.0059 6.22852C10.068 6.16818 10.1316 6.10995 10.1963 6.05371C10.2537 6.00379 10.3126 5.9556 10.3721 5.90918L10.4951 5.83008C10.7949 5.67841 11.1682 5.74411 11.3975 6.00586C11.6472 6.29126 11.8891 6.59842 12.1152 6.9248C12.303 7.19578 12.4806 7.481 12.6445 7.77832C13.276 8.92344 13.708 10.2658 13.708 11.7246C13.708 13.3041 13.1623 14.5084 12.4014 15.3818C12.1561 15.6633 11.8891 15.9074 11.6152 16.1191L14.3223 16.5947C14.6807 16.6578 14.9422 16.9691 14.9424 17.333V19.833Z" stroke="#9DA1A3" stroke-width="1.5" stroke-linejoin="round"/>
</svg>
