<svg width="16" height="21" viewBox="0 0 16 21" fill="none" xmlns="http://www.w3.org/2000/svg">
<path d="M12.5674 10.5791C12.5674 10.9933 12.2316 11.3291 11.8174 11.3291H11.1367C11.2507 11.5928 11.4082 11.866 11.6064 12.1455C11.8005 12.4191 12.0276 12.6905 12.2783 12.9541C13.1053 13.8236 14.1111 14.5325 14.7686 14.9082L14.8721 14.9668C15.1057 15.1003 15.2499 15.3491 15.25 15.6182V18.833C15.25 19.2472 14.9142 19.583 14.5 19.583H1.5C1.08579 19.583 0.75 19.2472 0.75 18.833V15.6182C0.750065 15.3491 0.894301 15.1003 1.12793 14.9668L1.23145 14.9082C1.88891 14.5325 2.89469 13.8236 3.72168 12.9541C3.97235 12.6905 4.1995 12.4191 4.39355 12.1455C4.59179 11.866 4.74929 11.5928 4.86328 11.3291H4.18262C3.7684 11.3291 3.43262 10.9933 3.43262 10.5791V8.40918C3.43262 8.16549 3.55091 7.93643 3.75 7.7959L4.61914 7.18164C4.41354 6.8989 4.24207 6.58878 4.11426 6.25684C3.94005 5.80427 3.84572 5.31317 3.8457 4.80176C3.8457 2.56424 5.65901 0.750185 7.89648 0.75C10.1341 0.75 11.9482 2.56413 11.9482 4.80176C11.9482 5.36606 11.8329 5.9054 11.623 6.39551C11.5188 6.63899 11.3898 6.86906 11.2422 7.08496L12.25 7.7959C12.4491 7.93643 12.5674 8.16549 12.5674 8.40918V10.5791Z" stroke="#9DA1A3" stroke-width="1.5" stroke-linejoin="round"/>
</svg>
