<svg width="20" height="36" viewBox="0 0 20 36" fill="none" xmlns="http://www.w3.org/2000/svg">
<rect width="20" height="36" rx="2" fill="#DC2D2D" fill-opacity="0.1"/>
<path d="M15.5 13.5H13.5V19.5H15.5V13.5ZM4.5 19C4.5 19.5525 4.9475 20 5.5 20H8.6575L8.18 22.285C8.17 22.335 8.1625 22.3875 8.1625 22.4425C8.1625 22.65 8.2475 22.8375 8.3825 22.9725L8.915 23.5L12.2075 20.2075C12.3875 20.025 12.5 19.775 12.5 19.5V14.5C12.5 13.9475 12.0525 13.5 11.5 13.5H7C6.585 13.5 6.23 13.7525 6.08 14.11L4.5725 17.635C4.5275 17.75 4.5 17.8725 4.5 18V18.9575L4.505 18.9625L4.5 19Z" fill="#DC2D2D"/>
</svg>
