<svg width="10" height="14" viewBox="0 0 10 14" fill="none" xmlns="http://www.w3.org/2000/svg">
<path fill-rule="evenodd" clip-rule="evenodd" d="M4.21967 0.21967C4.51256 -0.0732233 4.98744 -0.0732233 5.28033 0.21967L9.28033 4.21967C9.57322 4.51256 9.57322 4.98744 9.28033 5.28033C8.98744 5.57322 8.51256 5.57322 8.21967 5.28033L4.75 1.81066L1.28033 5.28033C0.987437 5.57322 0.512563 5.57322 0.21967 5.28033C-0.0732233 4.98744 -0.0732233 4.51256 0.21967 4.21967L4.21967 0.21967ZM0.21967 8.21967C0.512563 7.92678 0.987437 7.92678 1.28033 8.21967L4.75 11.6893L8.21967 8.21967C8.51256 7.92678 8.98744 7.92678 9.28033 8.21967C9.57322 8.51256 9.57322 8.98744 9.28033 9.28033L5.28033 13.2803C4.98744 13.5732 4.51256 13.5732 4.21967 13.2803L0.21967 9.28033C-0.0732233 8.98744 -0.0732233 8.51256 0.21967 8.21967Z" fill="#F7F9FA"/>
</svg>
